<svg xmlns="http://www.w3.org/2000/svg" viewBox="0 0 36 36">
  <path fill="#55ACEE"
        d="M20 28.625S30.661 25.9 33.356 15.72c.396-1.495-1.518-2.72-3.868-2.72H5.999c-1.175 0-3.74.493-3.072 2.894C5.711 25.9 16 28.625 16 28.625v1.173s-4.634 2.443-5.588 3.01c-1.027.588-.268 1.526.144 1.689.684.269 2.39 1.15 7.116 1.15 4.847 0 7.497-.954 8.083-1.15.226-.075 1.197-.973-.198-1.799-2.484-1.47-5.557-2.9-5.557-2.9v-1.173z"/>
  <path fill="#3B88C3"
        d="M33.291 15.248c0 1.692-6.835 3.064-15.269 3.064-8.432 0-15.268-1.371-15.268-3.064s6.836-3.064 15.268-3.064c8.434 0 15.269 1.371 15.269 3.064z"/>
  <path fill="#F4ABBA"
        d="M25.982 6.908c0 1.613-3.133 4.745-7.832 4.745-4.325 0-7.831-2.088-7.831-4.745 0-4.325 3.505-6.787 7.831-6.787 4.327.001 7.832 2.462 7.832 6.787z"/>
  <path fill="#FFE8B6"
        d="M33.291 14.217c0 1.613-3.132 4.223-7.83 4.223-4.326 0-7.832 1.393-7.832-4.223 0-4.325 3.506-7.831 7.832-7.831 4.325 0 7.83 3.506 7.83 7.831z"/>
  <path fill="#8A4B38"
        d="M18.672 14.217c0 5.182-3.132 4.311-7.831 4.311-4.325 0-7.831-1.653-7.831-4.311 0-4.325 3.506-7.831 7.831-7.831 4.326 0 7.831 3.506 7.831 7.831z"/>
  <path fill="#3B88C3"
        d="M30.837 21.098c.824-1.161 1.541-2.487 2.082-3.995-13.485 4.732-26.07 1.375-29.477.336.49 1.279 1.103 2.425 1.797 3.446 11.35 3.251 21.551 1.204 25.598.213z"/>
  <path fill="#55ACEE"
        d="M2.837 15.177c1.396.6 15.488 5.046 30.498.087 0 .652-.411 2.477-.653 3.175-.391 1.132-15.401 4.83-28.888.261-.392-.173-1.566-3.784-.957-3.523z"/>
  <!-- Vegan icon -->
  <g transform="translate(15 21) scale(0.41666 0.41666)">
    <rect width="49" height="36" fill="#446831" ry="18" rx="18"/>
    <path fill="#FFF"
          d="M 8.917 10.117 c -0.155 -0.403 -0.217 -0.713 -0.217 -1.147 c 0 -1.302 1.147 -2.232 2.387 -2.232 c 1.055 0 1.706 0.682 2.108 1.519 l 4.806 12.898 l 4.807 -12.898 c 0.402 -0.837 1.053 -1.519 2.107 -1.519 c 1.24 0 2.387 0.93 2.387 2.232 c 0 0.434 -0.06 0.744 -0.217 1.147 l -6.789 17.271 c -0.404 0.992 -0.931 1.798 -2.295 1.798 c -1.364 0 -1.891 -0.806 -2.295 -1.798 l -6.789 -17.271 z"/>
    <path fill="#FFF"
          d="M 23.417 10.117 c -0.155 -0.403 -0.217 -0.713 -0.217 -1.147 c 0 -1.302 1.147 -2.232 2.387 -2.232 c 1.055 0 1.706 0.682 2.108 1.519 l 4.806 12.898 l 4.807 -12.898 c 0.402 -0.837 1.053 -1.519 2.107 -1.519 c 1.24 0 2.387 0.93 2.387 2.232 c 0 0.434 -0.06 0.744 -0.217 1.147 l -6.789 17.271 c -0.404 0.992 -0.931 1.798 -2.295 1.798 c -1.364 0 -1.891 -0.806 -2.295 -1.798 l -6.789 -17.271 z"/>
  </g>
</svg>
