<svg xmlns="http://www.w3.org/2000/svg" viewBox="0 0 36 36">
  <path fill="#F4900C"
        d="M11.569 35.41c-2.223-.63-5.362-4.11-6.86-7.331-.183-.391-1.101-.673-1.265-1.084C.953 20.775.637 12.54 6.342 6.834 12.751.425 20.537-.295 26.817 1.757c.45.147.837 1.114 1.286 1.199 5.917 1.115 8.322 7.549 5.759 6.816-1.199-.342-2.657-.557-3.814-.428-.437.049-1.051.892-1.544.962-.767.11-2.64.212-3.564.305-9.159.916-12.395 6.971-12.811 14.256-.046.808-.617.623-.73 1.283-.344 1.992 1.089 4.884 1.772 6.939.594 1.794.619 2.951-1.602 2.321z"/>
  <path fill="#DB7803"
        d="M4.128 9.652c-1.439 2.333-2.158 4.906-2.333 7.505 2.615-1.499 6.334-2.652 12.393-.18.779-1.397 1.806-2.623 3.124-3.624-.992-.932-1.992-1.645-2.742-1.822-2.481-.588-7.17-2.213-10.442-1.879zm-.251 17.769c.324.215.719.416.832.658.032.069.069.139.103.209 1.92-1.11 4.42-1.707 6.553-1.642.006-.167.005-.339.032-.496.095-.552.506-.52.667-.965-4.887-1.059-6.75.812-8.187 2.236zM28.899 3.157c-.26-.074-.52-.148-.796-.2-.169-.032-.33-.19-.489-.382.918 2.123 1.899 5.032 1.024 7.689.467-.178 1.011-.875 1.409-.919.067-.007.143-.003.211-.008.206-1.704-.284-4.207-1.359-6.18z"/>
  <path fill="#FFAC33"
        d="M2.038 14.915C1.084 11.663 2.419 2.294 14.659 0c2.133 0 10.133 1.272 6.527 16.257-.559 2.325-1.797 2.739-3.562 1.605-4.126-2.648-11.602-7.099-15.586-2.947z"/>
  <!-- Vegan icon -->
  <g transform="translate(15 21) scale(0.41666 0.41666)">
    <rect width="49" height="36" fill="#446831" ry="18" rx="18"/>
    <path fill="#FFF"
          d="M 8.917 10.117 c -0.155 -0.403 -0.217 -0.713 -0.217 -1.147 c 0 -1.302 1.147 -2.232 2.387 -2.232 c 1.055 0 1.706 0.682 2.108 1.519 l 4.806 12.898 l 4.807 -12.898 c 0.402 -0.837 1.053 -1.519 2.107 -1.519 c 1.24 0 2.387 0.93 2.387 2.232 c 0 0.434 -0.06 0.744 -0.217 1.147 l -6.789 17.271 c -0.404 0.992 -0.931 1.798 -2.295 1.798 c -1.364 0 -1.891 -0.806 -2.295 -1.798 l -6.789 -17.271 z"/>
    <path fill="#FFF"
          d="M 23.417 10.117 c -0.155 -0.403 -0.217 -0.713 -0.217 -1.147 c 0 -1.302 1.147 -2.232 2.387 -2.232 c 1.055 0 1.706 0.682 2.108 1.519 l 4.806 12.898 l 4.807 -12.898 c 0.402 -0.837 1.053 -1.519 2.107 -1.519 c 1.24 0 2.387 0.93 2.387 2.232 c 0 0.434 -0.06 0.744 -0.217 1.147 l -6.789 17.271 c -0.404 0.992 -0.931 1.798 -2.295 1.798 c -1.364 0 -1.891 -0.806 -2.295 -1.798 l -6.789 -17.271 z"/>
  </g>
</svg>
