<svg xmlns="http://www.w3.org/2000/svg" viewBox="0 0 36 36">
  <ellipse fill="#292F33" cx="18" cy="26" rx="18" ry="10"/>
  <ellipse fill="#66757F" cx="18" cy="24" rx="18" ry="10"/>
  <path fill="#E1E8ED"
        d="M18 31C3.042 31 1 16 1 12h34c0 2-1.958 19-17 19z"/>
  <path fill="#B32F20"
        d="M35 12.056c0 5.216-7.611 9.444-17 9.444S1 17.271 1 12.056C1 6.84 8.611 3.611 18 3.611s17 3.229 17 8.445z"/>
  <ellipse fill="#D45B48" cx="18" cy="13" rx="15" ry="7"/>
  <path fill="#911F10"
        d="M21 17c-.256 0-.512-.098-.707-.293-2.337-2.337-2.376-4.885-.125-8.262.739-1.109.9-2.246.478-3.377-.461-1.236-1.438-1.996-1.731-2.077-.553 0-.958-.443-.958-.996 0-.552.491-.995 1.043-.995.997 0 2.395 1.153 3.183 2.625 1.034 1.933.91 4.039-.351 5.929-1.961 2.942-1.531 4.332-.125 5.738.391.391.391 1.023 0 1.414-.195.196-.451.294-.707.294zm-6-2c-.256 0-.512-.098-.707-.293-2.337-2.337-2.376-4.885-.125-8.262.727-1.091.893-2.083.494-2.947-.444-.961-1.431-1.469-1.684-1.499-.552 0-.989-.447-.989-1 0-.552.458-1 1.011-1 .997 0 2.585.974 3.36 2.423.481.899 1.052 2.761-.528 5.131-1.961 2.942-1.531 4.332-.125 5.738.391.391.391 1.023 0 1.414-.195.197-.451.295-.707.295z"/>
  <!-- Vegan icon -->
  <g transform="translate(15 21) scale(0.41666 0.41666)">
    <rect width="49" height="36" fill="#446831" ry="18" rx="18"/>
    <path fill="#FFF"
          d="M 8.917 10.117 c -0.155 -0.403 -0.217 -0.713 -0.217 -1.147 c 0 -1.302 1.147 -2.232 2.387 -2.232 c 1.055 0 1.706 0.682 2.108 1.519 l 4.806 12.898 l 4.807 -12.898 c 0.402 -0.837 1.053 -1.519 2.107 -1.519 c 1.24 0 2.387 0.93 2.387 2.232 c 0 0.434 -0.06 0.744 -0.217 1.147 l -6.789 17.271 c -0.404 0.992 -0.931 1.798 -2.295 1.798 c -1.364 0 -1.891 -0.806 -2.295 -1.798 l -6.789 -17.271 z"/>
  <path fill="#FFF"
        d="M 23.417 10.117 c -0.155 -0.403 -0.217 -0.713 -0.217 -1.147 c 0 -1.302 1.147 -2.232 2.387 -2.232 c 1.055 0 1.706 0.682 2.108 1.519 l 4.806 12.898 l 4.807 -12.898 c 0.402 -0.837 1.053 -1.519 2.107 -1.519 c 1.24 0 2.387 0.93 2.387 2.232 c 0 0.434 -0.06 0.744 -0.217 1.147 l -6.789 17.271 c -0.404 0.992 -0.931 1.798 -2.295 1.798 c -1.364 0 -1.891 -0.806 -2.295 -1.798 l -6.789 -17.271 z"/>
  </g>
</svg>
