<svg xmlns="http://www.w3.org/2000/svg" viewBox="0 0 36 36">
  <path fill="#EDB980"
        d="M12.697 31.165c-3.785 3.785-8.273 3.838-9.841 2.271-1.568-1.568-1.514-6.056 2.271-9.841L24.052 4.67c3.785-3.784 8.271-3.838 9.84-2.271 1.567 1.568 1.515 6.056-2.271 9.841L12.697 31.165z"/>
  <path fill="#E5A157"
        d="M24.322 7.969c1.568 1.568 2.758 2.917 3.595 2.082.152-.152.241-.349.301-.565-.018-.043-.036-.087-.041-.136-.128-1.148-2.41-3.641-4.08-4.721l-.045.042-1.474 1.474c.438.539 1.064 1.144 1.744 1.824zm-4.543 4.542c1.568 1.568 2.76 2.917 3.597 2.082.152-.152.241-.35.301-.567-.018-.043-.036-.086-.041-.135-.127-1.148-2.411-3.643-4.083-4.722l-1.517 1.517c.437.54 1.063 1.145 1.743 1.825zm-4.54 4.542c1.567 1.568 2.759 2.918 3.595 2.081.152-.152.241-.349.301-.565-.018-.043-.036-.087-.042-.136-.128-1.148-2.412-3.642-4.083-4.721l-1.517 1.517c.439.539 1.065 1.144 1.746 1.824zm-4.542 4.542c1.567 1.567 2.759 2.919 3.596 2.082.152-.152.241-.35.301-.566-.018-.043-.036-.087-.042-.136-.127-1.148-2.411-3.643-4.082-4.722L8.953 19.77c.437.54 1.063 1.145 1.744 1.825zm-4.542 4.541c1.567 1.568 2.759 2.919 3.596 2.082.152-.152.241-.35.301-.566-.018-.043-.036-.086-.042-.135-.128-1.148-2.412-3.643-4.083-4.722l-.801.801c-.246.246-.475.496-.691.747.437.532 1.053 1.126 1.72 1.793z"/>
  <path fill="#FFD983"
        d="M24.859 3.932c-.126.106-.634.569-.762.696 1.67 1.08 3.952 3.574 4.08 4.721.005.049.023.093.042.136.077.182.252.309.455.309l.057-.003c.274-.031.472-.278.441-.553-.164-1.452-2.382-4-4.313-5.306zm-4.583 4.514l-.724.724c1.671 1.079 3.956 3.574 4.083 4.722.005.049.023.092.041.135.076.183.252.31.455.31l.057-.003c.274-.031.472-.278.441-.552-.162-1.464-2.411-4.04-4.353-5.336zm-4.541 4.541l-.724.724c1.671 1.079 3.955 3.574 4.083 4.721.005.049.023.093.042.136.077.182.252.309.454.309l.057-.003c.274-.031.472-.278.441-.552-.163-1.463-2.412-4.038-4.353-5.335zm-4.542 4.541l-.724.724c1.671 1.079 3.955 3.574 4.082 4.722.005.049.023.093.042.136.077.183.252.309.455.309l.056-.003c.274-.03.472-.277.442-.552-.163-1.463-2.411-4.039-4.353-5.336zm-4.542 4.543l-.724.724c1.671 1.079 3.955 3.574 4.083 4.722.005.049.023.092.042.135.077.182.252.309.455.309.019 0 .037-.001.056-.003.274-.03.472-.278.442-.553-.164-1.462-2.413-4.038-4.354-5.334z"/>
  <!-- Vegan icon -->
  <g transform="translate(15 21) scale(0.41666 0.41666)">
    <rect width="49" height="36" fill="#446831" ry="18" rx="18"/>
    <path fill="#FFF"
          d="M 8.917 10.117 c -0.155 -0.403 -0.217 -0.713 -0.217 -1.147 c 0 -1.302 1.147 -2.232 2.387 -2.232 c 1.055 0 1.706 0.682 2.108 1.519 l 4.806 12.898 l 4.807 -12.898 c 0.402 -0.837 1.053 -1.519 2.107 -1.519 c 1.24 0 2.387 0.93 2.387 2.232 c 0 0.434 -0.06 0.744 -0.217 1.147 l -6.789 17.271 c -0.404 0.992 -0.931 1.798 -2.295 1.798 c -1.364 0 -1.891 -0.806 -2.295 -1.798 l -6.789 -17.271 z"/>
    <path fill="#FFF"
          d="M 23.417 10.117 c -0.155 -0.403 -0.217 -0.713 -0.217 -1.147 c 0 -1.302 1.147 -2.232 2.387 -2.232 c 1.055 0 1.706 0.682 2.108 1.519 l 4.806 12.898 l 4.807 -12.898 c 0.402 -0.837 1.053 -1.519 2.107 -1.519 c 1.24 0 2.387 0.93 2.387 2.232 c 0 0.434 -0.06 0.744 -0.217 1.147 l -6.789 17.271 c -0.404 0.992 -0.931 1.798 -2.295 1.798 c -1.364 0 -1.891 -0.806 -2.295 -1.798 l -6.789 -17.271 z"/>
  </g>
</svg>
