<svg xmlns="http://www.w3.org/2000/svg" viewBox="0 0 50.5 36">
  <rect width="50.5" height="36" fill="#446831" ry="18" rx="18"/>
  <path fill="#FFF"
        d="M 8.917 10.117 c -0.155 -0.403 -0.217 -0.713 -0.217 -1.147 c 0 -1.302 1.147 -2.232 2.387 -2.232 c 1.055 0 1.706 0.682 2.108 1.519 l 4.806 12.898 l 4.807 -12.898 c 0.402 -0.837 1.053 -1.519 2.107 -1.519 c 1.24 0 2.387 0.93 2.387 2.232 c 0 0.434 -0.06 0.744 -0.217 1.147 l -6.789 17.271 c -0.404 0.992 -0.931 1.798 -2.295 1.798 c -1.364 0 -1.891 -0.806 -2.295 -1.798 l -6.789 -17.271 z"/>
  <path fill="#FFF"
        d="M 23.417 10.117 c -0.155 -0.403 -0.217 -0.713 -0.217 -1.147 c 0 -1.302 1.147 -2.232 2.387 -2.232 c 1.055 0 1.706 0.682 2.108 1.519 l 4.806 12.898 l 4.807 -12.898 c 0.402 -0.837 1.053 -1.519 2.107 -1.519 c 1.24 0 2.387 0.93 2.387 2.232 c 0 0.434 -0.06 0.744 -0.217 1.147 l -6.789 17.271 c -0.404 0.992 -0.931 1.798 -2.295 1.798 c -1.364 0 -1.891 -0.806 -2.295 -1.798 l -6.789 -17.271 z"/>
</svg>
