<?xml version="1.0" encoding="UTF-8" standalone="no"?>
<svg xmlns="http://www.w3.org/2000/svg" width="1280" height="640">
  <rect x="0" y="0" width="100%" height="100%" style="fill:#0a3f5d;stroke:none" />
  <path style="fill:#ffffff;stroke:none;stroke-width:0.85000002" d="m 633.94844,104.190593 c 3.8946 30.787 11.7248 62.5356 39.1 80.9886 c 17.3928 11.725 44.4142 7.8078 54.1774 27.8114 c 8.8128 18.057 10.523 38.403 5.9108 57.8 c -3.8182 16.0514 -12.5852 29.3608 -24.395 40.732 c -10.5724 10.1796 -23.2798 17.4624 -37.3932 21.4404 c -48.7204 13.731 -99.4926 -20.8642 -106.5896 -70.6724 c -5.6986 -39.9924 28.8888 -84.8816 69.1896 -88.4 l -1.7 -11.9 c -12.2962 1.0044 -24.9996 4.7842 -35.7 10.9896 c -59.9852 34.787 -64.273 122.9142 -5.1 161.222 c 9.8632 6.3852 20.8022 10.7388 32.3 13.0816 c 51.352 10.467 108.562 -21.182 118.2096 -74.7932 c 6.1676 -34.2668 -5.1136 -70.3438 -24.1502 -98.6 c -9.1104 -13.522 -21.2092 -30.3812 -36.2594 -37.4 c 26.379 -1.5316 47.2464 27.3524 54.4 49.3 c 11.9782 -19.8672 2.0486 -46.9598 -15.3018 -59.9066 c -24.3814 -18.194 -57.5774 -19.3952 -86.6984 -21.6934 m 119 54.4 c 0 6.075 0.0968 13.3364 -0.1388 19.9136 c 9.8648 13.5298 14.7962 27.8282 19.3132 42.9864 c 6.9802 23.4192 5.8752 47.9774 -0.7378 71.4 c -5.3958 19.1098 -16.4084 36.4446 -29.857 50.847 c -12.7874 13.6952 -27.62 24.2386 -44.6794 31.9226 c -14.6354 6.5942 -31.54 10.6522 -47.6 10.7286 c -92.4304 0.4404 -163.3438 -96.8524 -123.797 -183.5982 c 6.7168 -14.7332 15.4918 -27.6044 26.9036 -39.0986 c 21.2126 -21.366 43.7444 -29.6654 71.3934 -39.1014 c -1.2512 -4.4398 -3.107 -11.6592 -5.088 -18.341 c -7.0652 1.4768 -18.161 4.5146 -23.812 6.2456 c -21.9638 6.728 -42.749 18.5894 -59.4934 34.3476 c -41.2574 38.8274 -54.906 99.048 -40.543 152.8478 c 6.5366 24.485 21.0592 46.8792 38.8364 64.5982 c 62.7758 62.5736 164.8608 55.267 222.3872 -10.1982 c 35.0438 -39.882 43.5948 -100.419 25.721 -149.6 c -6.0282 -16.5884 -14.8698 -34.6254 -28.8082 -45.9 z" />
  <text style="fill: white;font: 70px sans;" x="50%" y="85%" dominant-baseline="middle" text-anchor="middle">Komidabot</text>
</svg>
